<svg xmlns="http://www.w3.org/2000/svg" viewBox="0 0 1600 1000" width="1600" height="1000">
  <defs>
    <linearGradient id="brand" x1="0" y1="0" x2="1" y2="1">
      <stop offset="0" stop-color="#7B68FA"/><stop offset="1" stop-color="#45D9EF"/>
    </linearGradient>
    <linearGradient id="fade" x1="0" y1="0" x2="0" y2="1">
      <stop offset="0" stop-color="#7B68FA" stop-opacity="0.20"/>
      <stop offset="1" stop-color="#45D9EF" stop-opacity="0.02"/>
    </linearGradient>
  </defs>
  <rect width="1600" height="1000" fill="#15181D"/>

  <rect x="0" y="0" width="1600" height="64" fill="#1E2228"/>
  <line x1="0" y1="64" x2="1600" y2="64" stroke="#2F353E" stroke-width="2"/>
  <circle cx="34" cy="32" r="7" fill="#3A414B"/>
  <circle cx="60" cy="32" r="7" fill="#3A414B"/>
  <circle cx="86" cy="32" r="7" fill="#3A414B"/>
  <rect x="130" y="18" width="420" height="28" rx="14" fill="#15181D" stroke="#2F353E"/>
  <text x="152" y="38" font-family="monospace" font-size="15" fill="#9AA2AD">app.local/knowledge-base</text>

  <rect x="0" y="64" width="300" height="936" fill="#1E2228"/>
  <line x1="300" y1="64" x2="300" y2="1000" stroke="#2F353E" stroke-width="2"/>
  <rect x="40" y="116" width="180" height="12" rx="6" fill="#2F353E"/><rect x="40" y="158" width="130" height="12" rx="6" fill="#2F353E"/><rect x="40" y="200" width="210" height="12" rx="6" fill="#2F353E"/><rect x="40" y="242" width="150" height="12" rx="6" fill="#2F353E"/><rect x="40" y="284" width="170" height="12" rx="6" fill="#2F353E"/>
  <rect x="360" y="120" width="700" height="150" rx="8" fill="#1E2228" stroke="#2F353E"/>
  <rect x="392" y="156" width="620" height="12" rx="6" fill="#39414C"/><rect x="392" y="190" width="540" height="12" rx="6" fill="#39414C"/><rect x="392" y="224" width="430" height="12" rx="6" fill="#39414C"/>
  <rect x="360" y="310" width="820" height="300" rx="8" fill="url(#fade)" stroke="#7B68FA" stroke-opacity="0.5"/>
  <rect x="392" y="348" width="740" height="12" rx="6" fill="#4A5260"/><rect x="392" y="382" width="700" height="12" rx="6" fill="#4A5260"/><rect x="392" y="416" width="760" height="12" rx="6" fill="#4A5260"/><rect x="392" y="450" width="610" height="12" rx="6" fill="#4A5260"/><rect x="392" y="484" width="520" height="12" rx="6" fill="#4A5260"/>
  <text x="392" y="662" font-family="monospace" font-size="16" fill="#45D9EF">SOURCES</text>
  <rect x="392" y="682" width="190" height="34" rx="17" fill="none" stroke="#7B68FA" stroke-opacity="0.55"/>
  <rect x="600" y="682" width="230" height="34" rx="17" fill="none" stroke="#7B68FA" stroke-opacity="0.55"/>
  <rect x="848" y="682" width="160" height="34" rx="17" fill="none" stroke="#7B68FA" stroke-opacity="0.55"/>
  <rect x="1230" y="120" width="330" height="740" rx="8" fill="#1E2228" stroke="#2F353E"/>
  <rect x="1262" y="160" width="250" height="11" rx="5" fill="#2F353E"/><rect x="1262" y="197" width="200" height="11" rx="5" fill="#2F353E"/><rect x="1262" y="234" width="268" height="11" rx="5" fill="#2F353E"/><rect x="1262" y="271" width="180" height="11" rx="5" fill="#2F353E"/><rect x="1262" y="308" width="240" height="11" rx="5" fill="#2F353E"/><rect x="1262" y="345" width="210" height="11" rx="5" fill="#2F353E"/><rect x="1262" y="382" width="260" height="11" rx="5" fill="#2F353E"/><rect x="1262" y="419" width="190" height="11" rx="5" fill="#2F353E"/>


  <text x="800" y="946" text-anchor="middle" font-family="monospace"
        font-size="26" letter-spacing="6" fill="#9AA2AD">Knowledge Base RAG System</text>
  <text x="800" y="980" text-anchor="middle" font-family="monospace"
        font-size="17" letter-spacing="4" fill="#4A525D">PLACEHOLDER - REPLACE WITH REAL SCREENSHOT</text>
</svg>
